<?xml version="1.0"?>
<svg width="442" height="445" xmlns="http://www.w3.org/2000/svg" xmlns:svg="http://www.w3.org/2000/svg">
 <g class="layer">
  <title>Layer 1</title>
  <path d="m388.71,178.2l-1.43,-6.75l-56.3,-9.93l32.77,-44.74l-3.77,-4.38l-48.18,23.39l6.09,-61.99l-4.93,-2.91l-29.31,50.28l-32.81,-74.84l-5.78,0l7.82,72.2l-82.72,-66.96l-6.97,2.05l63.58,81.01l-125.97,-42.4l-5.81,6.43l112.6,64.91l-155.27,13.15l-1.73,9.66l161.36,17.82l-134.67,112.89l5.81,7.88l160.2,-88.31l-31.62,155.57l9.59,0l61.51,-146.49l37.46,114.61l6.67,-5.28l-15.37,-116.35l58.31,66.96l3.77,-6.16l-44.67,-83.03l62.39,23.39l0.57,-7.02l-56,-41.82l52.81,-12.84z" fill="white" id="svg_2"/>
  <line fill="none" id="svg_4" opacity="0.5" stroke="#000000" stroke-width="5" x1="65" x2="65" y1="130" y2="130"/>
 </g>
</svg>